# Blender 4.2.1 LTS
# www.blender.org
mtllib lightning.mtl
o Plane.001
v -1.000000 0.000000 1.000000
v 1.000000 0.000000 1.000000
v -1.000000 0.000000 -1.000000
v 1.000000 0.000000 -1.000000
v -0.490920 0.000000 -0.000000
v 0.501972 0.000000 -0.000000
v -0.881993 12.000000 0.471262
v 0.881993 12.000000 -0.471262
v -0.734739 10.958095 0.393902
v -0.382161 9.818182 0.204092
v -0.739383 8.678099 0.383119
v -0.601269 7.602981 0.286810
v -0.620899 6.512072 0.250268
v -1.555777 5.454364 0.456799
v -1.453278 4.363636 0.220869
v -0.086745 3.272727 0.003877
v 0.224590 2.181818 -0.000165
v 0.180539 1.090909 -0.000000
v 1.842500 1.090909 -0.000000
v 1.912195 2.181818 -0.001195
v 1.911078 3.272727 -0.085413
v 0.524016 4.363636 -0.079640
v 0.363408 5.454365 -0.105984
v 1.233124 6.512072 -0.499797
v 1.202895 7.602981 -0.576318
v 1.115977 8.678099 -0.578959
v 1.808194 9.818182 -0.965331
v 1.107084 10.958095 -0.593579
v -0.340155 0.545455 -0.000000
v 0.884662 11.454545 -0.473296
v -0.878820 11.454545 0.470171
v -0.527829 10.459857 0.283193
v -0.529830 9.176506 0.279431
v -0.774998 8.168896 0.389701
v -0.511239 7.046823 0.226428
v -1.050852 5.987077 0.374173
v -1.781081 4.909091 0.388422
v -0.585874 3.818182 0.054729
v 0.057115 2.727273 -0.000816
v 0.513590 1.636364 -0.000000
v 0.915777 0.545455 -0.000000
v 2.072743 1.636364 -0.000000
v 1.942951 2.727273 -0.027750
v 1.405456 3.818182 -0.131290
v 0.172991 4.909091 -0.037726
v 0.833444 5.987078 -0.296222
v 1.315929 7.046823 -0.586868
v 1.011552 8.168896 -0.509320
v 1.551078 9.176507 -0.818536
v 1.545335 10.459857 -0.829326
v 0.000000 0.000000 -0.676475
v -0.000000 0.695956 -1.826262
v 0.131974 0.000000 -0.663477
v 0.356286 0.695956 -1.791171
v 0.258876 0.000000 -0.624982
v 0.698880 0.695956 -1.687246
v 0.375830 0.000000 -0.562469
v 1.014617 0.695956 -1.518481
v 0.478340 0.000000 -0.478340
v 1.291362 0.695956 -1.291362
v 0.562469 0.000000 -0.375830
v 1.518481 0.695956 -1.014617
v 0.624982 0.000000 -0.258876
v 1.687246 0.695956 -0.698880
v 0.663477 0.000000 -0.131974
v 1.791171 0.695956 -0.356286
v 0.676475 0.000000 -0.000000
v 1.826262 0.695956 0.000000
v 0.663477 0.000000 0.131974
v 1.791171 0.695956 0.356286
v 0.624982 0.000000 0.258876
v 1.687246 0.695956 0.698880
v 0.562469 0.000000 0.375830
v 1.518481 0.695956 1.014617
v 0.478340 0.000000 0.478340
v 1.291362 0.695956 1.291362
v 0.375830 0.000000 0.562469
v 1.014617 0.695956 1.518481
v 0.258876 0.000000 0.624982
v 0.698880 0.695956 1.687246
v 0.131974 0.000000 0.663477
v 0.356286 0.695956 1.791171
v 0.000000 0.000000 0.676475
v -0.000000 0.695956 1.826262
v -0.131974 0.000000 0.663477
v -0.356286 0.695956 1.791171
v -0.258876 0.000000 0.624982
v -0.698880 0.695956 1.687246
v -0.375830 0.000000 0.562469
v -1.014617 0.695956 1.518481
v -0.478340 0.000000 0.478340
v -1.291362 0.695956 1.291362
v -0.562469 0.000000 0.375830
v -1.518481 0.695956 1.014617
v -0.624982 0.000000 0.258876
v -1.687246 0.695956 0.698880
v -0.663477 0.000000 0.131974
v -1.791171 0.695956 0.356286
v -0.676475 0.000000 -0.000000
v -1.826262 0.695956 0.000000
v -0.663477 0.000000 -0.131974
v -1.791171 0.695956 -0.356286
v -0.624982 0.000000 -0.258876
v -1.687246 0.695956 -0.698880
v -0.562469 0.000000 -0.375830
v -1.518481 0.695956 -1.014617
v -0.478340 0.000000 -0.478340
v -1.291362 0.695956 -1.291362
v -0.375830 0.000000 -0.562469
v -1.014617 0.695956 -1.518481
v -0.258876 0.000000 -0.624982
v -0.698880 0.695956 -1.687246
v -0.131974 0.000000 -0.663477
v -0.356286 0.695956 -1.791171
v 0.000000 0.000000 -0.676475
v -0.000000 0.695956 -1.826262
v 0.131974 0.000000 -0.663477
v 0.356286 0.695956 -1.791171
v 0.258876 0.000000 -0.624982
v 0.698880 0.695956 -1.687246
v 0.375830 0.000000 -0.562469
v 1.014617 0.695956 -1.518481
v 0.478340 0.000000 -0.478340
v 1.291362 0.695956 -1.291362
v 0.562469 0.000000 -0.375830
v 1.518481 0.695956 -1.014617
v 0.624982 0.000000 -0.258876
v 1.687246 0.695956 -0.698880
v 0.663477 0.000000 -0.131974
v 1.791171 0.695956 -0.356286
v 0.676475 0.000000 -0.000000
v 1.826262 0.695956 0.000000
v 0.663477 0.000000 0.131974
v 1.791171 0.695956 0.356286
v 0.624982 0.000000 0.258876
v 1.687246 0.695956 0.698880
v 0.562469 0.000000 0.375830
v 1.518481 0.695956 1.014617
v 0.478340 0.000000 0.478340
v 1.291362 0.695956 1.291362
v 0.375830 0.000000 0.562469
v 1.014617 0.695956 1.518481
v 0.258876 0.000000 0.624982
v 0.698880 0.695956 1.687246
v 0.131974 0.000000 0.663477
v 0.356286 0.695956 1.791171
v 0.000000 0.000000 0.676475
v -0.000000 0.695956 1.826262
v -0.131974 0.000000 0.663477
v -0.356286 0.695956 1.791171
v -0.258876 0.000000 0.624982
v -0.698880 0.695956 1.687246
v -0.375830 0.000000 0.562469
v -1.014617 0.695956 1.518481
v -0.478340 0.000000 0.478340
v -1.291362 0.695956 1.291362
v -0.562469 0.000000 0.375830
v -1.518481 0.695956 1.014617
v -0.624982 0.000000 0.258876
v -1.687246 0.695956 0.698880
v -0.663477 0.000000 0.131974
v -1.791171 0.695956 0.356286
v -0.676475 0.000000 -0.000000
v -1.826262 0.695956 0.000000
v -0.663477 0.000000 -0.131974
v -1.791171 0.695956 -0.356286
v -0.624982 0.000000 -0.258876
v -1.687246 0.695956 -0.698880
v -0.562469 0.000000 -0.375830
v -1.518481 0.695956 -1.014617
v -0.478340 0.000000 -0.478340
v -1.291362 0.695956 -1.291362
v -0.375830 0.000000 -0.562469
v -1.014617 0.695956 -1.518481
v -0.258876 0.000000 -0.624982
v -0.698880 0.695956 -1.687246
v -0.131974 0.000000 -0.663477
v -0.356286 0.695956 -1.791171
vn -0.0000 1.0000 -0.0000
vn -0.0000 -0.0000 1.0000
vn 0.4715 -0.0000 0.8819
vn 0.4723 -0.0003 0.8814
vn 0.4704 0.0037 0.8825
vn 0.4586 0.0045 0.8886
vn 0.4316 0.0121 0.9020
vn 0.3686 0.0162 0.9294
vn 0.2650 -0.0775 0.9611
vn 0.1691 -0.0606 0.9837
vn 0.0547 0.0568 0.9969
vn 0.0051 0.0169 0.9998
vn 0.0038 0.0128 0.9999
vn 0.0430 0.0551 0.9976
vn 0.1384 -0.0233 0.9901
vn 0.2872 -0.0576 0.9561
vn 0.3791 0.0204 0.9251
vn 0.4279 0.0140 0.9037
vn 0.4606 0.0048 0.8876
vn 0.4725 -0.0003 0.8813
vn 0.4719 -0.0001 0.8817
vn 0.4718 -0.0001 0.8817
vn 0.4724 0.0008 0.8814
vn 0.4657 0.0051 0.8849
vn 0.4485 0.0055 0.8937
vn 0.4049 0.0219 0.9141
vn 0.3211 -0.0251 0.9467
vn 0.2171 -0.0857 0.9724
vn 0.1089 0.0119 0.9940
vn 0.0208 0.0421 0.9989
vn 0.0002 0.0007 1.0000
vn 0.0189 0.0396 0.9990
vn 0.0790 0.0468 0.9958
vn 0.2121 -0.0843 0.9736
vn 0.3430 -0.0021 0.9393
vn 0.4050 0.0218 0.9140
vn 0.4476 0.0058 0.8942
vn 0.4674 0.0051 0.8840
vn 0.4721 0.0017 0.8815
vn -0.0000 0.1805 -0.9836
vn -0.0000 0.3639 -0.9314
vn 0.1919 0.1805 -0.9647
vn 0.1817 0.3639 -0.9135
vn 0.3764 0.1805 -0.9087
vn 0.3564 0.3639 -0.8605
vn 0.5464 0.1805 -0.8178
vn 0.5175 0.3639 -0.7745
vn 0.6955 0.1805 -0.6955
vn 0.6586 0.3639 -0.6586
vn 0.8178 0.1805 -0.5464
vn 0.7745 0.3639 -0.5175
vn 0.9087 0.1805 -0.3764
vn 0.8605 0.3639 -0.3564
vn 0.9647 0.1805 -0.1919
vn 0.9135 0.3639 -0.1817
vn 0.9836 0.1805 -0.0000
vn 0.9314 0.3639 -0.0000
vn 0.9647 0.1805 0.1919
vn 0.9135 0.3639 0.1817
vn 0.9087 0.1805 0.3764
vn 0.8605 0.3639 0.3564
vn 0.8178 0.1805 0.5464
vn 0.7745 0.3639 0.5175
vn 0.6955 0.1805 0.6955
vn 0.6586 0.3639 0.6586
vn 0.5464 0.1805 0.8178
vn 0.5175 0.3639 0.7745
vn 0.3764 0.1805 0.9087
vn 0.3564 0.3639 0.8605
vn 0.1919 0.1805 0.9647
vn 0.1817 0.3639 0.9135
vn -0.0000 0.1805 0.9836
vn -0.0000 0.3639 0.9314
vn -0.1919 0.1805 0.9647
vn -0.1817 0.3639 0.9135
vn -0.3764 0.1805 0.9087
vn -0.3564 0.3639 0.8605
vn -0.5464 0.1805 0.8178
vn -0.5175 0.3639 0.7745
vn -0.6955 0.1805 0.6955
vn -0.6586 0.3639 0.6586
vn -0.8178 0.1805 0.5464
vn -0.7745 0.3639 0.5175
vn -0.9087 0.1805 0.3764
vn -0.8605 0.3639 0.3564
vn -0.9647 0.1805 0.1919
vn -0.9135 0.3639 0.1817
vn -0.9836 0.1805 -0.0000
vn -0.9314 0.3639 -0.0000
vn -0.9647 0.1805 -0.1919
vn -0.9135 0.3639 -0.1817
vn -0.9087 0.1805 -0.3764
vn -0.8605 0.3639 -0.3564
vn -0.8178 0.1805 -0.5464
vn -0.7745 0.3639 -0.5175
vn -0.6955 0.1805 -0.6955
vn -0.6586 0.3639 -0.6586
vn -0.5464 0.1805 -0.8178
vn -0.5175 0.3639 -0.7745
vn -0.3764 0.1805 -0.9087
vn -0.3564 0.3639 -0.8605
vn -0.1919 0.1805 -0.9647
vn -0.1817 0.3639 -0.9135
vn -0.0000 0.9613 0.2756
vn -0.0000 0.9653 0.2612
vn -0.0538 0.9613 0.2703
vn -0.0510 0.9653 0.2562
vn -0.1055 0.9613 0.2546
vn -0.1000 0.9653 0.2414
vn -0.1531 0.9613 0.2292
vn -0.1451 0.9653 0.2172
vn -0.1949 0.9613 0.1949
vn -0.1847 0.9653 0.1847
vn -0.2292 0.9613 0.1531
vn -0.2172 0.9653 0.1451
vn -0.2546 0.9613 0.1055
vn -0.2414 0.9653 0.1000
vn -0.2703 0.9613 0.0538
vn -0.2562 0.9653 0.0510
vn -0.2756 0.9613 -0.0000
vn -0.2612 0.9653 -0.0000
vn -0.2703 0.9613 -0.0538
vn -0.2562 0.9653 -0.0510
vn -0.2546 0.9613 -0.1055
vn -0.2414 0.9653 -0.1000
vn -0.2292 0.9613 -0.1531
vn -0.2172 0.9653 -0.1451
vn -0.1949 0.9613 -0.1949
vn -0.1847 0.9653 -0.1847
vn -0.1531 0.9613 -0.2292
vn -0.1451 0.9653 -0.2172
vn -0.1055 0.9613 -0.2546
vn -0.1000 0.9653 -0.2414
vn -0.0538 0.9613 -0.2703
vn -0.0510 0.9653 -0.2562
vn -0.0000 0.9613 -0.2756
vn -0.0000 0.9653 -0.2612
vn 0.0538 0.9613 -0.2703
vn 0.0510 0.9653 -0.2562
vn 0.1055 0.9613 -0.2546
vn 0.1000 0.9653 -0.2414
vn 0.1531 0.9613 -0.2292
vn 0.1451 0.9653 -0.2172
vn 0.1949 0.9613 -0.1949
vn 0.1847 0.9653 -0.1847
vn 0.2292 0.9613 -0.1531
vn 0.2172 0.9653 -0.1451
vn 0.2546 0.9613 -0.1055
vn 0.2414 0.9653 -0.1000
vn 0.2703 0.9613 -0.0538
vn 0.2562 0.9653 -0.0510
vn 0.2756 0.9613 -0.0000
vn 0.2612 0.9653 -0.0000
vn 0.2703 0.9613 0.0538
vn 0.2562 0.9653 0.0510
vn 0.2546 0.9613 0.1055
vn 0.2414 0.9653 0.1000
vn 0.2292 0.9613 0.1531
vn 0.2172 0.9653 0.1451
vn 0.1949 0.9613 0.1949
vn 0.1847 0.9653 0.1847
vn 0.1531 0.9613 0.2292
vn 0.1451 0.9653 0.2172
vn 0.1055 0.9613 0.2546
vn 0.1000 0.9653 0.2414
vn 0.0538 0.9613 0.2703
vn 0.0510 0.9653 0.2562
vt 0.000000 0.000000
vt 1.000000 0.000000
vt 1.000000 1.000000
vt 0.000000 1.000000
vt 0.000000 0.954545
vt 1.000000 0.954545
vt 0.000000 0.045455
vt 1.000000 0.045455
vt 1.000000 0.090909
vt 0.000000 0.090909
vt 0.000000 0.136364
vt 1.000000 0.136364
vt 1.000000 0.181818
vt 0.000000 0.181818
vt 0.000000 0.227273
vt 1.000000 0.227273
vt 1.000000 0.272727
vt 0.000000 0.272727
vt 0.000000 0.318182
vt 1.000000 0.318182
vt 1.000000 0.363636
vt 0.000000 0.363636
vt 0.000000 0.409091
vt 1.000000 0.409091
vt 1.000000 0.454545
vt 0.000000 0.454545
vt 0.000000 0.500000
vt 1.000000 0.500000
vt 1.000000 0.545455
vt 0.000000 0.545455
vt 0.000000 0.590909
vt 1.000000 0.590909
vt 1.000000 0.636364
vt 0.000000 0.636364
vt 0.000000 0.681818
vt 1.000000 0.681818
vt 1.000000 0.727273
vt 0.000000 0.727273
vt 0.000000 0.772727
vt 1.000000 0.772727
vt 1.000000 0.818182
vt 0.000000 0.818182
vt 0.000000 0.863636
vt 1.000000 0.863636
vt 1.000000 0.909091
vt 0.000000 0.909091
vt 0.968750 1.000000
vt 0.968750 0.000000
vt 0.937500 1.000000
vt 0.937500 0.000000
vt 0.906250 1.000000
vt 0.906250 0.000000
vt 0.875000 1.000000
vt 0.875000 0.000000
vt 0.843750 1.000000
vt 0.843750 0.000000
vt 0.812500 1.000000
vt 0.812500 0.000000
vt 0.781250 1.000000
vt 0.781250 0.000000
vt 0.750000 1.000000
vt 0.750000 0.000000
vt 0.718750 1.000000
vt 0.718750 0.000000
vt 0.687500 1.000000
vt 0.687500 0.000000
vt 0.656250 1.000000
vt 0.656250 0.000000
vt 0.625000 1.000000
vt 0.625000 0.000000
vt 0.593750 1.000000
vt 0.593750 0.000000
vt 0.562500 1.000000
vt 0.562500 0.000000
vt 0.531250 1.000000
vt 0.531250 0.000000
vt 0.500000 1.000000
vt 0.500000 0.000000
vt 0.468750 1.000000
vt 0.468750 0.000000
vt 0.437500 1.000000
vt 0.437500 0.000000
vt 0.406250 1.000000
vt 0.406250 0.000000
vt 0.375000 1.000000
vt 0.375000 0.000000
vt 0.343750 1.000000
vt 0.343750 0.000000
vt 0.312500 1.000000
vt 0.312500 0.000000
vt 0.281250 1.000000
vt 0.281250 0.000000
vt 0.250000 1.000000
vt 0.250000 0.000000
vt 0.218750 1.000000
vt 0.218750 0.000000
vt 0.187500 1.000000
vt 0.187500 0.000000
vt 0.156250 1.000000
vt 0.156250 0.000000
vt 0.125000 1.000000
vt 0.125000 0.000000
vt 0.093750 1.000000
vt 0.093750 0.000000
vt 0.062500 1.000000
vt 0.062500 0.000000
vt 0.031250 1.000000
vt 0.031250 0.000000
s 1
usemtl Material.003
f 1/1/1 2/2/1 4/3/1 3/4/1
usemtl Material.001
f 31/5/22 30/6/21 8/3/3 7/4/3
f 29/7/2 41/8/2 19/9/2 18/10/2
f 40/11/31 42/12/31 20/13/13 17/14/12
f 39/15/30 43/16/32 21/17/14 16/18/11
f 38/19/29 44/20/33 22/21/15 15/22/10
f 37/23/28 45/24/34 23/25/16 14/26/9
f 36/27/27 46/28/35 24/29/17 13/30/8
f 35/31/26 47/32/36 25/33/18 12/34/7
f 34/35/25 48/36/37 26/37/19 11/38/6
f 33/39/24 49/40/38 27/41/5 10/42/5
f 32/43/23 50/44/39 28/45/20 9/46/4
f 10/42/5 27/41/5 50/44/39 32/43/23
f 11/38/6 26/37/19 49/40/38 33/39/24
f 12/34/7 25/33/18 48/36/37 34/35/25
f 13/30/8 24/29/17 47/32/36 35/31/26
f 14/26/9 23/25/16 46/28/35 36/27/27
f 15/22/10 22/21/15 45/24/34 37/23/28
f 16/18/11 21/17/14 44/20/33 38/19/29
f 17/14/12 20/13/13 43/16/32 39/15/30
f 18/10/2 19/9/2 42/12/31 40/11/31
f 5/1/2 6/2/2 41/8/2 29/7/2
f 9/46/4 28/45/20 30/6/21 31/5/22
usemtl Material.002
f 51/2/40 52/3/41 54/47/43 53/48/42
f 53/48/42 54/47/43 56/49/45 55/50/44
f 55/50/44 56/49/45 58/51/47 57/52/46
f 57/52/46 58/51/47 60/53/49 59/54/48
f 59/54/48 60/53/49 62/55/51 61/56/50
f 61/56/50 62/55/51 64/57/53 63/58/52
f 63/58/52 64/57/53 66/59/55 65/60/54
f 65/60/54 66/59/55 68/61/57 67/62/56
f 67/62/56 68/61/57 70/63/59 69/64/58
f 69/64/58 70/63/59 72/65/61 71/66/60
f 71/66/60 72/65/61 74/67/63 73/68/62
f 73/68/62 74/67/63 76/69/65 75/70/64
f 75/70/64 76/69/65 78/71/67 77/72/66
f 77/72/66 78/71/67 80/73/69 79/74/68
f 79/74/68 80/73/69 82/75/71 81/76/70
f 81/76/70 82/75/71 84/77/73 83/78/72
f 83/78/72 84/77/73 86/79/75 85/80/74
f 85/80/74 86/79/75 88/81/77 87/82/76
f 87/82/76 88/81/77 90/83/79 89/84/78
f 89/84/78 90/83/79 92/85/81 91/86/80
f 91/86/80 92/85/81 94/87/83 93/88/82
f 93/88/82 94/87/83 96/89/85 95/90/84
f 95/90/84 96/89/85 98/91/87 97/92/86
f 97/92/86 98/91/87 100/93/89 99/94/88
f 99/94/88 100/93/89 102/95/91 101/96/90
f 101/96/90 102/95/91 104/97/93 103/98/92
f 103/98/92 104/97/93 106/99/95 105/100/94
f 105/100/94 106/99/95 108/101/97 107/102/96
f 107/102/96 108/101/97 110/103/99 109/104/98
f 109/104/98 110/103/99 112/105/101 111/106/100
f 111/106/100 112/105/101 114/107/103 113/108/102
f 113/108/102 114/107/103 52/4/41 51/1/40
f 115/2/104 117/48/106 118/47/107 116/3/105
f 117/48/106 119/50/108 120/49/109 118/47/107
f 119/50/108 121/52/110 122/51/111 120/49/109
f 121/52/110 123/54/112 124/53/113 122/51/111
f 123/54/112 125/56/114 126/55/115 124/53/113
f 125/56/114 127/58/116 128/57/117 126/55/115
f 127/58/116 129/60/118 130/59/119 128/57/117
f 129/60/118 131/62/120 132/61/121 130/59/119
f 131/62/120 133/64/122 134/63/123 132/61/121
f 133/64/122 135/66/124 136/65/125 134/63/123
f 135/66/124 137/68/126 138/67/127 136/65/125
f 137/68/126 139/70/128 140/69/129 138/67/127
f 139/70/128 141/72/130 142/71/131 140/69/129
f 141/72/130 143/74/132 144/73/133 142/71/131
f 143/74/132 145/76/134 146/75/135 144/73/133
f 145/76/134 147/78/136 148/77/137 146/75/135
f 147/78/136 149/80/138 150/79/139 148/77/137
f 149/80/138 151/82/140 152/81/141 150/79/139
f 151/82/140 153/84/142 154/83/143 152/81/141
f 153/84/142 155/86/144 156/85/145 154/83/143
f 155/86/144 157/88/146 158/87/147 156/85/145
f 157/88/146 159/90/148 160/89/149 158/87/147
f 159/90/148 161/92/150 162/91/151 160/89/149
f 161/92/150 163/94/152 164/93/153 162/91/151
f 163/94/152 165/96/154 166/95/155 164/93/153
f 165/96/154 167/98/156 168/97/157 166/95/155
f 167/98/156 169/100/158 170/99/159 168/97/157
f 169/100/158 171/102/160 172/101/161 170/99/159
f 171/102/160 173/104/162 174/103/163 172/101/161
f 173/104/162 175/106/164 176/105/165 174/103/163
f 175/106/164 177/108/166 178/107/167 176/105/165
f 177/108/166 115/1/104 116/4/105 178/107/167
f 104/97/93 102/95/91 166/95/155 168/97/157
f 67/62/56 69/64/58 133/64/122 131/62/120
f 85/80/74 87/82/76 151/82/140 149/80/138
f 70/63/59 68/61/57 132/61/121 134/63/123
f 51/2/40 53/48/42 117/48/106 115/2/104
f 103/98/92 105/100/94 169/100/158 167/98/156
f 88/81/77 86/79/75 150/79/139 152/81/141
f 106/99/95 104/97/93 168/97/157 170/99/159
f 69/64/58 71/66/60 135/66/124 133/64/122
f 54/47/43 52/3/41 116/3/105 118/47/107
f 87/82/76 89/84/78 153/84/142 151/82/140
f 72/65/61 70/63/59 134/63/123 136/65/125
f 105/100/94 107/102/96 171/102/160 169/100/158
f 90/83/79 88/81/77 152/81/141 154/83/143
f 53/48/42 55/50/44 119/50/108 117/48/106
f 108/101/97 106/99/95 170/99/159 172/101/161
f 71/66/60 73/68/62 137/68/126 135/66/124
f 56/49/45 54/47/43 118/47/107 120/49/109
f 89/84/78 91/86/80 155/86/144 153/84/142
f 74/67/63 72/65/61 136/65/125 138/67/127
f 107/102/96 109/104/98 173/104/162 171/102/160
f 92/85/81 90/83/79 154/83/143 156/85/145
f 55/50/44 57/52/46 121/52/110 119/50/108
f 110/103/99 108/101/97 172/101/161 174/103/163
f 73/68/62 75/70/64 139/70/128 137/68/126
f 58/51/47 56/49/45 120/49/109 122/51/111
f 91/86/80 93/88/82 157/88/146 155/86/144
f 76/69/65 74/67/63 138/67/127 140/69/129
f 109/104/98 111/106/100 175/106/164 173/104/162
f 94/87/83 92/85/81 156/85/145 158/87/147
f 57/52/46 59/54/48 123/54/112 121/52/110
f 112/105/101 110/103/99 174/103/163 176/105/165
f 75/70/64 77/72/66 141/72/130 139/70/128
f 60/53/49 58/51/47 122/51/111 124/53/113
f 93/88/82 95/90/84 159/90/148 157/88/146
f 78/71/67 76/69/65 140/69/129 142/71/131
f 111/106/100 113/108/102 177/108/166 175/106/164
f 96/89/85 94/87/83 158/87/147 160/89/149
f 59/54/48 61/56/50 125/56/114 123/54/112
f 114/107/103 112/105/101 176/105/165 178/107/167
f 77/72/66 79/74/68 143/74/132 141/72/130
f 62/55/51 60/53/49 124/53/113 126/55/115
f 95/90/84 97/92/86 161/92/150 159/90/148
f 80/73/69 78/71/67 142/71/131 144/73/133
f 113/108/102 51/1/40 115/1/104 177/108/166
f 98/91/87 96/89/85 160/89/149 162/91/151
f 61/56/50 63/58/52 127/58/116 125/56/114
f 52/4/41 114/107/103 178/107/167 116/4/105
f 79/74/68 81/76/70 145/76/134 143/74/132
f 64/57/53 62/55/51 126/55/115 128/57/117
f 97/92/86 99/94/88 163/94/152 161/92/150
f 82/75/71 80/73/69 144/73/133 146/75/135
f 100/93/89 98/91/87 162/91/151 164/93/153
f 63/58/52 65/60/54 129/60/118 127/58/116
f 81/76/70 83/78/72 147/78/136 145/76/134
f 66/59/55 64/57/53 128/57/117 130/59/119
f 99/94/88 101/96/90 165/96/154 163/94/152
f 84/77/73 82/75/71 146/75/135 148/77/137
f 102/95/91 100/93/89 164/93/153 166/95/155
f 65/60/54 67/62/56 131/62/120 129/60/118
f 83/78/72 85/80/74 149/80/138 147/78/136
f 68/61/57 66/59/55 130/59/119 132/61/121
f 101/96/90 103/98/92 167/98/156 165/96/154
f 86/79/75 84/77/73 148/77/137 150/79/139
