{
  "accessors": [
    {
      "bufferView": 2,
      "componentType": 5126,
      "count": 245,
      "max": [
        1.0111883878707886,
        2.359065055847168,
        0.07499980926513672
      ],
      "min": [
        -0.07499992102384567,
        1.0742846727371216,
        -0.07500052452087402
      ],
      "type": "VEC3"
    },
    {
      "bufferView": 2,
      "byteOffset": 2940,
      "componentType": 5126,
      "count": 245,
      "max": [
        0.9966393709182739,
        0.9990217089653015,
        0.9999818205833435
      ],
      "min": [
        -0.9974765777587891,
        -1.0,
        -0.9999817609786987
      ],
      "type": "VEC3"
    },
    {
      "bufferView": 3,
      "componentType": 5126,
      "count": 245,
      "max": [
        0.9998010993003845,
        0.9984481334686279,
        0.9999972581863403,
        1.0
      ],
      "min": [
        -0.9992260932922363,
        -0.9983987212181091,
        -1.0,
        1.0
      ],
      "type": "VEC4"
    },
    {
      "bufferView": 1,
      "componentType": 5126,
      "count": 245,
      "max": [
        0.9544042944908142,
        0.3827701807022095
      ],
      "min": [
        0.001953125,
        0.001953231170773506
      ],
      "type": "VEC2"
    },
    {
      "bufferView": 0,
      "componentType": 5125,
      "count": 1224,
      "type": "SCALAR"
    },
    {
      "bufferView": 2,
      "byteOffset": 5880,
      "componentType": 5126,
      "count": 1075,
      "max": [
        1.000000238418579,
        1.2212307453155518,
        1.0000003576278687
      ],
      "min": [
        -0.9999998211860657,
        -1.0,
        -1.0
      ],
      "type": "VEC3"
    },
    {
      "bufferView": 2,
      "byteOffset": 18780,
      "componentType": 5126,
      "count": 1075,
      "max": [
        1.0,
        1.0,
        1.0
      ],
      "min": [
        -1.0,
        -1.0,
        -1.0
      ],
      "type": "VEC3"
    },
    {
      "bufferView": 3,
      "byteOffset": 3920,
      "componentType": 5126,
      "count": 1075,
      "max": [
        1.0,
        1.0,
        1.0,
        1.0
      ],
      "min": [
        -1.0,
        -0.999673068523407,
        -0.9999999403953552,
        1.0
      ],
      "type": "VEC4"
    },
    {
      "bufferView": 1,
      "byteOffset": 1960,
      "componentType": 5126,
      "count": 1075,
      "max": [
        0.998046875,
        0.8838093280792236
      ],
      "min": [
        0.001953125,
        0.001953125
      ],
      "type": "VEC2"
    },
    {
      "bufferView": 0,
      "byteOffset": 4896,
      "componentType": 5125,
      "count": 4416,
      "type": "SCALAR"
    }
  ],
  "asset": {
    "extras": {
      "author": "Ahsan.Faraz (https://sketchfab.com/Ahsan.Faraz)",
      "license": "CC-BY-4.0 (http://creativecommons.org/licenses/by/4.0/)",
      "source": "https://sketchfab.com/3d-models/stylized-bomb-19116a7b863842f9acfcdaf9ef34d7a1",
      "title": "Stylized Bomb"
    },
    "generator": "Sketchfab-16.62.0",
    "version": "2.0"
  },
  "bufferViews": [
    {
      "buffer": 0,
      "byteLength": 22560,
      "name": "floatBufferViews",
      "target": 34963
    },
    {
      "buffer": 0,
      "byteLength": 10560,
      "byteOffset": 22560,
      "byteStride": 8,
      "name": "floatBufferViews",
      "target": 34962
    },
    {
      "buffer": 0,
      "byteLength": 31680,
      "byteOffset": 33120,
      "byteStride": 12,
      "name": "floatBufferViews",
      "target": 34962
    },
    {
      "buffer": 0,
      "byteLength": 21120,
      "byteOffset": 64800,
      "byteStride": 16,
      "name": "floatBufferViews",
      "target": 34962
    }
  ],
  "buffers": [
    {
      "byteLength": 85920,
      "uri": "scene.bin"
    }
  ],
  "images": [
    {
      "uri": "textures/bomb_baseColor.png"
    },
    {
      "uri": "textures/bomb_metallicRoughness.png"
    },
    {
      "uri": "textures/bomb_emissive.png"
    },
    {
      "uri": "textures/bomb_normal.png"
    }
  ],
  "materials": [
    {
      "doubleSided": true,
      "emissiveFactor": [
        1.0,
        1.0,
        1.0
      ],
      "emissiveTexture": {
        "index": 2
      },
      "name": "bomb",
      "normalTexture": {
        "index": 3
      },
      "occlusionTexture": {
        "index": 1
      },
      "pbrMetallicRoughness": {
        "baseColorTexture": {
          "index": 0
        },
        "metallicRoughnessTexture": {
          "index": 1
        }
      }
    }
  ],
  "meshes": [
    {
      "name": "Rope_low_bomb_0",
      "primitives": [
        {
          "attributes": {
            "NORMAL": 1,
            "POSITION": 0,
            "TANGENT": 2,
            "TEXCOORD_0": 3
          },
          "indices": 4,
          "material": 0,
          "mode": 4
        }
      ]
    },
    {
      "name": "bomb_low_bomb_0",
      "primitives": [
        {
          "attributes": {
            "NORMAL": 6,
            "POSITION": 5,
            "TANGENT": 7,
            "TEXCOORD_0": 8
          },
          "indices": 9,
          "material": 0,
          "mode": 4
        }
      ]
    }
  ],
  "nodes": [
    {
      "children": [
        1
      ],
      "matrix": [
        1.0,
        0.0,
        0.0,
        0.0,
        0.0,
        2.220446049250313e-16,
        -1.0,
        0.0,
        0.0,
        1.0,
        2.220446049250313e-16,
        0.0,
        0.0,
        0.0,
        0.0,
        1.0
      ],
      "name": "Sketchfab_model"
    },
    {
      "children": [
        2
      ],
      "matrix": [
        0.009999999776482582,
        0.0,
        0.0,
        0.0,
        0.0,
        0.0,
        0.009999999776482582,
        0.0,
        0.0,
        -0.009999999776482582,
        0.0,
        0.0,
        0.0,
        0.0,
        0.0,
        1.0
      ],
      "name": "65d2524a8f164264bfdad72ea9858458.fbx"
    },
    {
      "children": [
        3
      ],
      "name": "RootNode"
    },
    {
      "children": [
        4,
        6
      ],
      "name": "bomb1"
    },
    {
      "children": [
        5
      ],
      "name": "Rope_low"
    },
    {
      "mesh": 0,
      "name": "Rope_low_bomb_0"
    },
    {
      "children": [
        7
      ],
      "name": "bomb_low"
    },
    {
      "mesh": 1,
      "name": "bomb_low_bomb_0"
    }
  ],
  "samplers": [
    {
      "magFilter": 9729,
      "minFilter": 9987,
      "wrapS": 10497,
      "wrapT": 10497
    }
  ],
  "scene": 0,
  "scenes": [
    {
      "name": "Sketchfab_Scene",
      "nodes": [
        0
      ]
    }
  ],
  "textures": [
    {
      "sampler": 0,
      "source": 0
    },
    {
      "sampler": 0,
      "source": 1
    },
    {
      "sampler": 0,
      "source": 2
    },
    {
      "sampler": 0,
      "source": 3
    }
  ]
}
